<svg xmlns="http://www.w3.org/2000/svg" xml:space="preserve" width="800" height="800" viewBox="0 0 503.322 503.322"><path d="M194.291 148.359c-2.143 9.52-3.376 19.378-3.376 29.54 0 4.634.243 9.207.694 13.711 6.439 63.245 56.858 113.673 120.103 120.103.46 4.513.694 9.086.694 13.711 0 10.162-1.224 20.029-3.367 29.548-85.157-7.793-152.897-75.533-160.681-160.681-.503-5.406-.833-10.856-.833-16.393 0-9.537.972-18.831 2.412-27.96C163.38 65.007 236.718 0 325.424 0c98.261 0 177.898 79.646 177.898 177.898 0 88.715-64.998 162.044-149.929 175.495 1.441-9.138 2.404-18.423 2.404-27.969 0-5.528-.33-10.978-.824-16.384 59.991-13.52 104.96-67.133 104.96-131.141 0-74.171-60.338-134.508-134.508-134.508-64.01-.001-117.614 44.977-131.134 104.968" style="fill:#bc9519"/><path d="M353.393 353.393c-13.451 84.931-86.78 149.929-175.495 149.929C79.646 503.322 0 423.684 0 325.424c0-88.706 65.007-162.044 149.938-175.486-1.441 9.129-2.412 18.423-2.412 27.96 0 5.537.33 10.986.833 16.393C88.368 207.811 43.39 261.415 43.39 325.424c0 74.171 60.338 134.508 134.508 134.508 64.009 0 117.621-44.969 131.141-104.96 2.143-9.52 3.367-19.387 3.367-29.548 0-4.625-.234-9.199-.694-13.711-6.43-63.245-56.849-113.664-120.103-120.103a138 138 0 0 1-.694-13.711c0-10.162 1.232-20.02 3.376-29.54 85.157 7.793 152.888 75.524 160.681 160.681.495 5.406.824 10.856.824 16.384.001 9.546-.963 18.831-2.403 27.969" style="fill:#f0c419"/></svg>