<svg xmlns="http://www.w3.org/2000/svg" width="40" height="40" version="1.0" viewBox="0 0 30 30"><defs><clipPath id="a"><path d="M.488 2.523h29.028V7.34H.488Zm0 0" /></clipPath><clipPath id="b"><path d="M.488 12.043h29.028v4.93H.488Zm0 0" /></clipPath><clipPath id="c"><path d="M.488 21.68h29.028v4.793H.488Zm0 0" /></clipPath></defs><g clip-path="url(#a)"><path fill="#fff9f2" d="M27.113 7.32H2.887A2.396 2.396 0 0 1 .488 4.922a2.396 2.396 0 0 1 2.399-2.399h24.226a2.4 2.4 0 0 1 2.403 2.399 2.4 2.4 0 0 1-2.403 2.398" /></g><g clip-path="url(#b)"><path fill="#fff9f2" d="M27.113 16.918H2.887a2.397 2.397 0 0 1-2.399-2.402 2.396 2.396 0 0 1 2.399-2.399h24.226a2.4 2.4 0 1 1 0 4.801" /></g><g clip-path="url(#c)"><path fill="#fff9f2" d="M27.113 26.512H2.887a2.396 2.396 0 0 1-2.399-2.399 2.396 2.396 0 0 1 2.399-2.398h24.226a2.4 2.4 0 0 1 2.403 2.398 2.4 2.4 0 0 1-2.403 2.399" /></g></svg>