<svg xmlns="http://www.w3.org/2000/svg" width="546" height="141" version="1.0" viewBox="0 0 409.5 105.75"><defs><clipPath id="a"><path d="M348 14h60.77v29H348Zm0 0"/></clipPath></defs><path fill="#d87127" d="M1.977 100.086c28.156 5.047 58.046-3.356 79.086-22.832 9.789-9.05 17.546-20.262 22.703-32.543 2.605-6.203 4.539-12.68 5.699-19.297 1.156-6.621 1.73-14.387-3.145-19.867C101.441.07 93.758.629 89.43 6.328c-5.309 6.988-2.614 15.856.074 23.32.601 1.657 2.945 1.004 2.629-.726-1.324-7.184-3.051-14.961-9.465-19.36-5.176-3.539-12.031-3.023-16.02 1.981-7.8 9.777-2.984 24.715 2.918 34.117 7.075 11.266 18.317 19.602 30.633 24.367 15.477 5.996 32.653 6.094 48.89 3.856 8.38-1.149 16.891-2.715 24.997-5.164 6.797-2.055 13.601-5.766 16.418-12.664 2.45-6 .262-13.61-6.086-16.137-5.309-2.113-10.363 1.2-12.293 6.187-2.035 5.278-.75 11.04 3.16 15.055 4.754 4.88 11.813 6.711 18.32 7.778 16.32 2.687 33.075 2.41 49.313-.692 8.3-1.582 16.46-3.914 24.336-6.984 7.383-2.875 14.473-6.39 21.558-9.907 13.727-6.82 28.047-14.25 43.59-15.492a55 55 0 0 1 11.176.25c1.735.223 1.715-2.508 0-2.718-28.75-3.594-53.246 16.355-78.781 25.906A138.8 138.8 0 0 1 220.453 68c-7.703.227-15.437-.152-23.07-1.227-6.238-.878-13.051-1.984-18.235-5.847-4.394-3.281-6.457-8.461-4.527-13.746.766-2.098 2.238-4.09 4.402-4.867 2.739-.981 5.622.253 7.473 2.347 4.86 5.52 1.36 13.094-3.746 16.992-5.824 4.446-13.785 5.715-20.777 7.192-27.54 5.832-59.282 6.418-81.215-14.004-8.309-7.746-15.649-19.23-15.324-31.008.125-4.809 1.707-10.844 6.421-13.125 6.653-3.23 12.942 3.176 15.165 8.898 1.253 3.223 1.878 6.637 2.503 10.016l2.63-.726c-2.294-6.348-5.055-13.997-1.04-20.243 1.496-2.324 3.922-4.254 6.77-4.355 3.035-.11 5.738 1.828 7.394 4.254 3.875 5.672 2.235 13.515.864 19.746-1.368 6.23-3.204 11.742-5.688 17.277-10.355 23.067-29.984 41.04-54.101 48.817-14.032 4.523-29.11 5.644-43.633 3.043-1.715-.305-2.453 2.316-.727 2.629Zm0 0"/><g clip-path="url(#a)"><path fill="#d87127" d="M349.023 27.695c.22-.48.633-.836 1.114-.937h.07c.14-.028 3.547-.422 5.45-.11.363.059.702.254.972.54l5.316 4.37c1.414-.288 6.754-1.378 13.035-2.636l-10.175-11.387c-.297-.34-.399-.77-.254-1.176a1.15 1.15 0 0 1 .93-.742l4.937-.777c.473-.078 1.148.05 1.555.305l17.8 10.851c4.684-.902 8.54-1.621 10.13-1.844 1.156-.16 2.456-.007 3.859.442 2.316.754 4.906 2.41 5.074 3.66 0 .05-.086 5.012-9.703 7.48l-35.168 7.043s-.867.168-1.606.075c-1.242-.153-2.527-.5-3.828-.922l-.379-.125-.535-.172-.117-.04.016-.042a3.03 3.03 0 0 1-1.403-.98l-7.058-11.344-.016-.043c-.238-.442-.246-.997-.027-1.48Zm8.774 13.02"/></g></svg>