<svg xmlns="http://www.w3.org/2000/svg" width="40" height="40" version="1.0" viewBox="0 0 30 30"><defs><clipPath id="a"><path d="M1 .574h28.516v27.578H1Zm0 0"/></clipPath><clipPath id="b"><path d="M1 .574h27V27H1Zm0 0"/></clipPath></defs><g clip-path="url(#a)"><path fill="#ffbe0d" d="M24.094 17.816a2.05 2.05 0 0 0-.582 1.805l1.07 6.293c.281 1.664-1.45 2.93-2.926 2.145l-5.597-2.973a2 2 0 0 0-1.88 0l-5.597 2.973c-1.332.707-2.867-.247-2.95-1.66a1.9 1.9 0 0 1 .024-.485l1.07-6.293a2.07 2.07 0 0 0-.581-1.805L1.617 13.36c-1.199-1.18-.535-3.23 1.117-3.476l6.258-.914a2.01 2.01 0 0 0 1.516-1.114l2.8-5.73c.743-1.512 2.876-1.512 3.618 0l2.8 5.73c.294.598.86 1.016 1.516 1.114l6.258.914c.16.023.309.066.45.12 1.316.509 1.753 2.286.667 3.356Zm0 0"/></g><g clip-path="url(#b)"><path fill="#ffce00" d="M27.95 10.004C22.995 18.082 15.03 24.082 5.632 26.398a1.9 1.9 0 0 1 .023-.484l1.07-6.293a2.07 2.07 0 0 0-.581-1.805L1.617 13.36c-1.199-1.18-.535-3.23 1.117-3.476l6.258-.914a2.01 2.01 0 0 0 1.516-1.114l2.8-5.73c.743-1.512 2.876-1.512 3.618 0l2.8 5.73c.294.598.86 1.016 1.516 1.114l6.258.914q.245.034.45.12m0 0"/></g></svg>